<?xml version="1.0" encoding="UTF-8" standalone="no"?>
<!-- http://code.google.com/p/vector-playing-cards/ -->

<svg
   xmlns:dc="http://purl.org/dc/elements/1.1/"
   xmlns:cc="http://creativecommons.org/ns#"
   xmlns:rdf="http://www.w3.org/1999/02/22-rdf-syntax-ns#"
   xmlns:svg="http://www.w3.org/2000/svg"
   xmlns="http://www.w3.org/2000/svg"
   xmlns:sodipodi="http://sodipodi.sourceforge.net/DTD/sodipodi-0.dtd"
   xmlns:inkscape="http://www.inkscape.org/namespaces/inkscape"
   width="21.218521"
   height="25.464144"
   viewBox="0 0 16.974817 20.371315"
   xml:space="preserve"
   id="svg2"
   version="1.1"
   inkscape:version="0.48.4 r9939"
   sodipodi:docname="2s.svg"
   inkscape:export-filename="/home/byron/art/cards/final/PNGs/2_of_spades.png"
   inkscape:export-xdpi="215.44792"
   inkscape:export-ydpi="215.44792"><metadata
   id="metadata43"><rdf:RDF><cc:Work
       rdf:about=""><dc:format>image/svg+xml</dc:format><dc:type
         rdf:resource="http://purl.org/dc/dcmitype/StillImage" /><dc:title></dc:title></cc:Work></rdf:RDF></metadata><defs
   id="defs41" /><sodipodi:namedview
   pagecolor="#ffffff"
   bordercolor="#666666"
   borderopacity="1"
   objecttolerance="10"
   gridtolerance="10"
   guidetolerance="10"
   inkscape:pageopacity="0"
   inkscape:pageshadow="2"
   inkscape:window-width="2496"
   inkscape:window-height="1418"
   id="namedview39"
   showgrid="false"
   inkscape:zoom="8.2060464"
   inkscape:cx="10.342848"
   inkscape:cy="-15.081251"
   inkscape:window-x="-8"
   inkscape:window-y="-8"
   inkscape:window-maximized="1"
   inkscape:current-layer="svg2"
   fit-margin-top="0"
   fit-margin-left="0"
   fit-margin-right="0"
   fit-margin-bottom="0" />
	


















































<g
   id="layer1-7-88-6-2"
   transform="matrix(1.0609655,0,0,0.9700164,8.487406,10.185172)"><path
     sodipodi:nodetypes="cccccccccc"
     style="fill:#000000"
     inkscape:connector-curvature="0"
     d="M 7.989,3.103 C 7.747,-0.954 0.242,-8.59 0,-10.5 c -0.242,1.909 -7.747,9.545 -7.989,13.603 -0.169,2.868 1.695,4.057 3.39,4.057 1.8351685,-0.021581 3.3508701,-2.8006944 3.873,-3.341 0.242,0.716 -1.603,6.682 -2.179,6.682 l 5.811,0 C 2.33,10.501 0.485,4.535 0.727,3.819 1.1841472,4.3152961 2.5241276,7.0768295 4.601,7.16 6.295,7.159 8.158,5.971 7.989,3.103 z"
     id="sl-4-4-2" /></g></svg>